<svg version="1.2" preserveAspectRatio="xMidYMid meet" viewBox="72 100.49999758800001 230.25 146.24999649" zoomAndPan="magnify" xmlns:xlink="http://www.w3.org/1999/xlink" xmlns="http://www.w3.org/2000/svg" style="max-height: 500px" width="230.25" height="146.24999649"><defs><clipPath id="bb907369b0"><path d="M 119.160156 121 L 255.660156 121 L 255.660156 207.949219 L 119.160156 207.949219 Z M 119.160156 121"/></clipPath><clipPath id="f527932205"><path d="M 131 104.449219 L 235 104.449219 L 235 177 L 131 177 Z M 131 104.449219"/></clipPath></defs><g id="6d574fa1d9"><g clip-path="url(#bb907369b0)" clip-rule="nonzero"><path d="M 227.542969 157.355469 L 241.179688 146.308594 C 242.175781 151.023438 242.839844 155.171875 242.839844 160.03125 C 242.839844 165.527344 242.039062 170.835938 240.554688 175.851562 L 207.160156 146.339844 L 208.117188 168.839844 L 199.003906 178.066406 L 198.722656 202.492188 L 162.371094 166.53125 L 168.769531 192.28125 L 159.097656 207.957031 C 149.902344 202.539062 142.402344 194.554688 137.585938 184.988281 L 119.203125 198.671875 L 162.136719 155.738281 L 174.671875 167.808594 L 206.929688 136.015625 L 220.851562 149.476562 L 244.527344 127.660156 L 235.707031 124.0625 L 255.316406 121.394531 L 252.996094 139.261719 L 249.339844 131.199219 Z M 227.542969 157.355469" style="stroke:none;fill-rule:evenodd;fill:#d5c299;fill-opacity:1;"/></g><g clip-path="url(#f527932205)" clip-rule="nonzero"><path d="M 187.261719 104.449219 C 207.121094 104.449219 224.546875 114.871094 234.378906 130.539062 L 220.933594 142.929688 L 206.894531 129.363281 L 174.632812 161.164062 L 162.078125 149.074219 L 134.277344 176.871094 C 132.589844 171.558594 131.679688 165.902344 131.679688 160.03125 C 131.679688 129.332031 156.566406 104.449219 187.261719 104.449219" style="stroke:none;fill-rule:evenodd;fill:#ffffff;fill-opacity:1;"/></g><g style="fill:#ffffff;fill-opacity:1;"><g transform="translate(75.513119, 227.323622)"><path d="M 1.3125 -16 L 3.40625 -16 C 3.613281 -16 3.71875 -15.894531 3.71875 -15.6875 L 3.71875 -0.3125 C 3.71875 -0.101562 3.613281 0 3.40625 0 L 1.3125 0 C 1.101562 0 1 -0.101562 1 -0.3125 L 1 -15.6875 C 1 -15.894531 1.101562 -16 1.3125 -16 Z M 1.3125 -16" style="stroke:none"/></g></g><g style="fill:#ffffff;fill-opacity:1;"><g transform="translate(83.031258, 227.323622)"><path d="M 3.875 -14 L 6.125 -14 C 7.070312 -14 7.785156 -13.753906 8.265625 -13.265625 C 8.753906 -12.785156 9 -12.070312 9 -11.125 L 9 -9.796875 C 9 -9.585938 8.894531 -9.484375 8.6875 -9.484375 L 6.65625 -9.484375 C 6.445312 -9.484375 6.34375 -9.585938 6.34375 -9.796875 L 6.34375 -10.640625 C 6.34375 -11.171875 6.078125 -11.4375 5.546875 -11.4375 L 4.4375 -11.4375 C 3.90625 -11.4375 3.640625 -11.171875 3.640625 -10.640625 L 3.640625 -8.9375 L 8.484375 -7.375 C 8.828125 -7.257812 9 -7.015625 9 -6.640625 L 9 -2.875 C 9 -1.945312 8.753906 -1.234375 8.265625 -0.734375 C 7.785156 -0.242188 7.070312 0 6.125 0 L 3.875 0 C 2.945312 0 2.234375 -0.242188 1.734375 -0.734375 C 1.242188 -1.234375 1 -1.945312 1 -2.875 L 1 -4.1875 C 1 -4.394531 1.101562 -4.5 1.3125 -4.5 L 3.34375 -4.5 C 3.550781 -4.5 3.65625 -4.394531 3.65625 -4.1875 L 3.65625 -3.34375 C 3.65625 -2.8125 3.921875 -2.546875 4.453125 -2.546875 L 5.546875 -2.546875 C 6.078125 -2.546875 6.34375 -2.8125 6.34375 -3.34375 L 6.34375 -5.359375 L 1.546875 -6.921875 C 1.179688 -7.035156 1 -7.28125 1 -7.65625 L 1 -11.125 C 1 -12.070312 1.242188 -12.785156 1.734375 -13.265625 C 2.234375 -13.753906 2.945312 -14 3.875 -14 Z M 3.875 -14" style="stroke:none"/></g></g><g style="fill:#ffffff;fill-opacity:1;"><g transform="translate(95.82732, 227.323622)"><path d="M 3.71875 -2.640625 L 3.71875 -13.6875 C 3.71875 -13.894531 3.613281 -14 3.40625 -14 L 1.3125 -14 C 1.101562 -14 1 -13.894531 1 -13.6875 L 1 -0.3125 C 1 -0.101562 1.101562 0 1.3125 0 L 7.6875 0 C 7.894531 0 8 -0.101562 8 -0.3125 L 8 -2.3125 C 8 -2.53125 7.894531 -2.640625 7.6875 -2.640625 Z M 3.71875 -2.640625" style="stroke:none"/></g></g><g style="fill:#ffffff;fill-opacity:1;"><g transform="translate(107.623774, 227.323622)"><path d="M 10.4375 0 L 8.5 0 C 8.320312 0 8.21875 -0.09375 8.1875 -0.28125 L 7.546875 -2.796875 L 3.78125 -2.796875 L 3.15625 -0.28125 C 3.113281 -0.09375 3.007812 0 2.84375 0 L 0.875 0 C 0.632812 0 0.550781 -0.113281 0.625 -0.34375 L 3.9375 -13.71875 C 3.976562 -13.90625 4.09375 -14 4.28125 -14 L 7.0625 -14 C 7.25 -14 7.363281 -13.90625 7.40625 -13.71875 L 10.71875 -0.34375 C 10.78125 -0.113281 10.6875 0 10.4375 0 Z M 6.921875 -5.125 L 5.65625 -10.5625 L 4.40625 -5.125 Z M 6.921875 -5.125" style="stroke:none"/></g></g><g style="fill:#ffffff;fill-opacity:1;"><g transform="translate(121.75931, 227.323622)"><path d="" style="stroke:none"/></g></g><g style="fill:#ffffff;fill-opacity:1;"><g transform="translate(129.557336, 227.323622)"><path d="M 1 -0.3125 L 1 -13.6875 C 1 -13.894531 1.101562 -14 1.3125 -14 L 6.125 -14 C 7.070312 -14 7.785156 -13.753906 8.265625 -13.265625 C 8.753906 -12.785156 9 -12.070312 9 -11.125 L 9 -7.203125 C 9 -6.265625 8.753906 -5.550781 8.265625 -5.0625 C 7.785156 -4.582031 7.070312 -4.332031 6.125 -4.3125 L 3.59375 -4.296875 L 3.59375 -0.296875 C 3.59375 -0.0859375 3.488281 0.015625 3.28125 0.015625 L 1.3125 0 C 1.101562 0 1 -0.101562 1 -0.3125 Z M 3.59375 -6.875 L 5.59375 -6.90625 C 6.132812 -6.90625 6.40625 -7.171875 6.40625 -7.703125 L 6.40625 -10.625 C 6.40625 -11.15625 6.132812 -11.421875 5.59375 -11.421875 L 3.59375 -11.40625 Z M 3.59375 -6.875" style="stroke:none"/></g></g><g style="fill:#ffffff;fill-opacity:1;"><g transform="translate(142.353398, 227.323622)"><path d="M 9 -11.125 L 9 -7.09375 C 9 -5.9375 8.625 -5.125 7.875 -4.65625 L 8.921875 -0.359375 C 8.984375 -0.117188 8.890625 0 8.640625 0 L 6.6875 0 C 6.5 0 6.382812 -0.09375 6.34375 -0.28125 L 5.375 -4.21875 L 3.59375 -4.21875 L 3.59375 -0.3125 C 3.59375 -0.101562 3.488281 0 3.28125 0 L 1.3125 0 C 1.101562 0 1 -0.101562 1 -0.3125 L 1 -13.6875 C 1 -13.894531 1.101562 -14 1.3125 -14 L 6.125 -14 C 7.070312 -14 7.785156 -13.753906 8.265625 -13.265625 C 8.753906 -12.785156 9 -12.070312 9 -11.125 Z M 3.59375 -6.796875 L 5.59375 -6.796875 C 6.132812 -6.796875 6.40625 -7.0625 6.40625 -7.59375 L 6.40625 -10.625 C 6.40625 -11.15625 6.132812 -11.421875 5.59375 -11.421875 L 3.59375 -11.421875 Z M 3.59375 -6.796875" style="stroke:none"/></g></g><g style="fill:#ffffff;fill-opacity:1;"><g transform="translate(155.14946, 227.323622)"><path d="M 1.3125 0 L 3.40625 0 C 3.613281 0 3.71875 -0.101562 3.71875 -0.3125 L 3.71875 -13.6875 C 3.71875 -13.894531 3.613281 -14 3.40625 -14 L 1.3125 -14 C 1.101562 -14 1 -13.894531 1 -13.6875 L 1 -0.3125 C 1 -0.101562 1.101562 0 1.3125 0 Z M 1.3125 0" style="stroke:none"/></g></g><g style="fill:#ffffff;fill-opacity:1;"><g transform="translate(162.667599, 227.323622)"><path d="M 9.359375 -14 L 12 -14 C 12.269531 -14 12.40625 -13.863281 12.40625 -13.59375 L 12.40625 -0.40625 C 12.40625 -0.132812 12.269531 0 12 0 L 10.140625 0 C 9.867188 0 9.734375 -0.132812 9.734375 -0.40625 L 9.734375 -8.265625 L 9.59375 -8.265625 L 7.71875 -0.34375 C 7.65625 -0.113281 7.507812 0 7.28125 0 L 6.09375 0 C 5.875 0 5.726562 -0.113281 5.65625 -0.34375 L 3.78125 -8.265625 L 3.640625 -8.265625 L 3.640625 -0.40625 C 3.640625 -0.132812 3.503906 0 3.234375 0 L 1.40625 0 C 1.132812 0 1 -0.132812 1 -0.40625 L 1 -13.59375 C 1 -13.863281 1.132812 -14 1.40625 -14 L 4.046875 -14 C 4.265625 -14 4.410156 -13.882812 4.484375 -13.65625 L 6.703125 -4.734375 L 8.921875 -13.65625 C 8.984375 -13.882812 9.128906 -14 9.359375 -14 Z M 9.359375 -14" style="stroke:none"/></g></g><g style="fill:#ffffff;fill-opacity:1;"><g transform="translate(178.862315, 227.323622)"><path d="M 8.984375 -13.6875 L 8.984375 -11.6875 C 8.984375 -11.457031 8.875 -11.34375 8.65625 -11.34375 L 3.71875 -11.34375 L 3.71875 -8.265625 L 7.484375 -8.265625 C 7.691406 -8.265625 7.796875 -8.148438 7.796875 -7.921875 L 7.796875 -5.9375 C 7.796875 -5.707031 7.691406 -5.59375 7.484375 -5.59375 L 3.71875 -5.59375 L 3.71875 -2.640625 L 8.65625 -2.640625 C 8.875 -2.640625 8.984375 -2.53125 8.984375 -2.3125 L 8.984375 -0.3125 C 8.984375 -0.101562 8.875 0 8.65625 0 L 1.296875 0 C 1.097656 0 1 -0.101562 1 -0.3125 L 1 -13.6875 C 1 -13.894531 1.097656 -14 1.296875 -14 L 8.65625 -14 C 8.875 -14 8.984375 -13.894531 8.984375 -13.6875 Z M 8.984375 -13.6875" style="stroke:none"/></g></g><g style="fill:#ffffff;fill-opacity:1;"><g transform="translate(191.638384, 227.323622)"><path d="" style="stroke:none"/></g></g><g style="fill:#ffffff;fill-opacity:1;"><g transform="translate(199.436411, 227.323622)"><path d="M 3.71875 -2.640625 L 3.71875 -13.6875 C 3.71875 -13.894531 3.613281 -14 3.40625 -14 L 1.3125 -14 C 1.101562 -14 1 -13.894531 1 -13.6875 L 1 -0.3125 C 1 -0.101562 1.101562 0 1.3125 0 L 7.6875 0 C 7.894531 0 8 -0.101562 8 -0.3125 L 8 -2.3125 C 8 -2.53125 7.894531 -2.640625 7.6875 -2.640625 Z M 3.71875 -2.640625" style="stroke:none"/></g></g><g style="fill:#ffffff;fill-opacity:1;"><g transform="translate(211.232866, 227.323622)"><path d="M 1 -2.875 L 1 -11.125 C 1 -12.070312 1.242188 -12.785156 1.734375 -13.265625 C 2.234375 -13.753906 2.945312 -14 3.875 -14 L 6.125 -14 C 7.070312 -14 7.785156 -13.753906 8.265625 -13.265625 C 8.753906 -12.785156 9 -12.070312 9 -11.125 L 9 -2.875 C 9 -1.945312 8.753906 -1.234375 8.265625 -0.734375 C 7.785156 -0.242188 7.070312 0 6.125 0 L 3.875 0 C 2.945312 0 2.234375 -0.242188 1.734375 -0.734375 C 1.242188 -1.234375 1 -1.945312 1 -2.875 Z M 4.40625 -2.578125 L 5.6875 -2.578125 C 6.21875 -2.578125 6.484375 -2.84375 6.484375 -3.375 L 6.484375 -10.625 C 6.484375 -11.15625 6.21875 -11.421875 5.6875 -11.421875 L 4.40625 -11.421875 C 3.863281 -11.421875 3.59375 -11.15625 3.59375 -10.625 L 3.59375 -3.375 C 3.59375 -2.84375 3.863281 -2.578125 4.40625 -2.578125 Z M 4.40625 -2.578125" style="stroke:none"/></g></g><g style="fill:#ffffff;fill-opacity:1;"><g transform="translate(224.028927, 227.323622)"><path d="M 1 -2.875 L 1 -11.125 C 1 -12.070312 1.242188 -12.785156 1.734375 -13.265625 C 2.234375 -13.753906 2.945312 -14 3.875 -14 L 6.125 -14 C 7.050781 -14 7.757812 -13.753906 8.25 -13.265625 C 8.75 -12.785156 9 -12.070312 9 -11.125 L 9 -9.640625 C 9 -9.421875 8.894531 -9.3125 8.6875 -9.3125 L 6.796875 -9.3125 C 6.585938 -9.3125 6.484375 -9.421875 6.484375 -9.640625 L 6.484375 -10.625 C 6.484375 -11.15625 6.21875 -11.421875 5.6875 -11.421875 L 4.40625 -11.421875 C 3.863281 -11.421875 3.59375 -11.15625 3.59375 -10.625 L 3.59375 -3.375 C 3.59375 -2.84375 3.863281 -2.578125 4.40625 -2.578125 L 5.6875 -2.578125 C 6.21875 -2.578125 6.484375 -2.84375 6.484375 -3.375 L 6.484375 -5.125 L 5.4375 -5.125 C 5.226562 -5.125 5.125 -5.226562 5.125 -5.4375 L 5.125 -7.4375 C 5.125 -7.65625 5.226562 -7.765625 5.4375 -7.765625 L 8.6875 -7.765625 C 8.894531 -7.765625 9 -7.65625 9 -7.4375 L 9 -2.875 C 9 -1.945312 8.75 -1.234375 8.25 -0.734375 C 7.757812 -0.242188 7.050781 0 6.125 0 L 3.875 0 C 2.945312 0 2.234375 -0.242188 1.734375 -0.734375 C 1.242188 -1.234375 1 -1.945312 1 -2.875 Z M 1 -2.875" style="stroke:none"/></g></g><g style="fill:#ffffff;fill-opacity:1;"><g transform="translate(236.824989, 227.323622)"><path d="M 1.3125 0 L 3.40625 0 C 3.613281 0 3.71875 -0.101562 3.71875 -0.3125 L 3.71875 -13.6875 C 3.71875 -13.894531 3.613281 -14 3.40625 -14 L 1.3125 -14 C 1.101562 -14 1 -13.894531 1 -13.6875 L 1 -0.3125 C 1 -0.101562 1.101562 0 1.3125 0 Z M 1.3125 0" style="stroke:none"/></g></g><g style="fill:#ffffff;fill-opacity:1;"><g transform="translate(244.343128, 227.323622)"><path d="M 3.875 -14 L 6.125 -14 C 7.070312 -14 7.785156 -13.753906 8.265625 -13.265625 C 8.753906 -12.785156 9 -12.070312 9 -11.125 L 9 -9.796875 C 9 -9.585938 8.894531 -9.484375 8.6875 -9.484375 L 6.65625 -9.484375 C 6.445312 -9.484375 6.34375 -9.585938 6.34375 -9.796875 L 6.34375 -10.640625 C 6.34375 -11.171875 6.078125 -11.4375 5.546875 -11.4375 L 4.4375 -11.4375 C 3.90625 -11.4375 3.640625 -11.171875 3.640625 -10.640625 L 3.640625 -8.9375 L 8.484375 -7.375 C 8.828125 -7.257812 9 -7.015625 9 -6.640625 L 9 -2.875 C 9 -1.945312 8.753906 -1.234375 8.265625 -0.734375 C 7.785156 -0.242188 7.070312 0 6.125 0 L 3.875 0 C 2.945312 0 2.234375 -0.242188 1.734375 -0.734375 C 1.242188 -1.234375 1 -1.945312 1 -2.875 L 1 -4.1875 C 1 -4.394531 1.101562 -4.5 1.3125 -4.5 L 3.34375 -4.5 C 3.550781 -4.5 3.65625 -4.394531 3.65625 -4.1875 L 3.65625 -3.34375 C 3.65625 -2.8125 3.921875 -2.546875 4.453125 -2.546875 L 5.546875 -2.546875 C 6.078125 -2.546875 6.34375 -2.8125 6.34375 -3.34375 L 6.34375 -5.359375 L 1.546875 -6.921875 C 1.179688 -7.035156 1 -7.28125 1 -7.65625 L 1 -11.125 C 1 -12.070312 1.242188 -12.785156 1.734375 -13.265625 C 2.234375 -13.753906 2.945312 -14 3.875 -14 Z M 3.875 -14" style="stroke:none"/></g></g><g style="fill:#ffffff;fill-opacity:1;"><g transform="translate(257.13919, 227.323622)"><path d="M 8.28125 -14 L 0.921875 -14 C 0.703125 -14 0.59375 -13.894531 0.59375 -13.6875 L 0.59375 -11.6875 C 0.59375 -11.46875 0.703125 -11.359375 0.921875 -11.359375 L 3.234375 -11.359375 L 3.234375 -0.3125 C 3.234375 -0.101562 3.34375 0 3.5625 0 L 5.640625 0 C 5.847656 0 5.953125 -0.101562 5.953125 -0.3125 L 5.953125 -11.359375 L 8.28125 -11.359375 C 8.488281 -11.359375 8.59375 -11.46875 8.59375 -11.6875 L 8.59375 -13.6875 C 8.59375 -13.894531 8.488281 -14 8.28125 -14 Z M 8.28125 -14" style="stroke:none"/></g></g><g style="fill:#ffffff;fill-opacity:1;"><g transform="translate(269.135561, 227.323622)"><path d="M 1.3125 0 L 3.40625 0 C 3.613281 0 3.71875 -0.101562 3.71875 -0.3125 L 3.71875 -13.6875 C 3.71875 -13.894531 3.613281 -14 3.40625 -14 L 1.3125 -14 C 1.101562 -14 1 -13.894531 1 -13.6875 L 1 -0.3125 C 1 -0.101562 1.101562 0 1.3125 0 Z M 1.3125 0" style="stroke:none"/></g></g><g style="fill:#ffffff;fill-opacity:1;"><g transform="translate(276.653688, 227.323622)"><path d="M 9.015625 -11.125 L 9.015625 -8.953125 C 9.015625 -8.742188 8.910156 -8.640625 8.703125 -8.640625 L 6.8125 -8.640625 C 6.601562 -8.640625 6.5 -8.742188 6.5 -8.953125 L 6.5 -10.59375 C 6.5 -11.132812 6.234375 -11.40625 5.703125 -11.40625 L 4.421875 -11.40625 C 3.890625 -11.40625 3.625 -11.132812 3.625 -10.59375 L 3.625 -3.34375 C 3.625 -2.8125 3.890625 -2.546875 4.421875 -2.546875 L 5.703125 -2.546875 C 6.234375 -2.546875 6.5 -2.8125 6.5 -3.34375 L 6.5 -5.046875 C 6.5 -5.253906 6.601562 -5.359375 6.8125 -5.359375 L 8.703125 -5.359375 C 8.910156 -5.359375 9.015625 -5.253906 9.015625 -5.046875 L 9.015625 -2.875 C 9.015625 -1.945312 8.769531 -1.234375 8.28125 -0.734375 C 7.789062 -0.242188 7.078125 0 6.140625 0 L 3.90625 0 C 2.96875 0 2.25 -0.242188 1.75 -0.734375 C 1.25 -1.234375 1 -1.945312 1 -2.875 L 1 -11.125 C 1 -12.070312 1.25 -12.785156 1.75 -13.265625 C 2.25 -13.753906 2.96875 -14 3.90625 -14 L 6.140625 -14 C 7.078125 -14 7.789062 -13.753906 8.28125 -13.265625 C 8.769531 -12.785156 9.015625 -12.070312 9.015625 -11.125 Z M 9.015625 -11.125" style="stroke:none"/></g></g><g style="fill:#ffffff;fill-opacity:1;"><g transform="translate(289.469743, 227.323622)"><path d="M 3.875 -14 L 6.125 -14 C 7.070312 -14 7.785156 -13.753906 8.265625 -13.265625 C 8.753906 -12.785156 9 -12.070312 9 -11.125 L 9 -9.796875 C 9 -9.585938 8.894531 -9.484375 8.6875 -9.484375 L 6.65625 -9.484375 C 6.445312 -9.484375 6.34375 -9.585938 6.34375 -9.796875 L 6.34375 -10.640625 C 6.34375 -11.171875 6.078125 -11.4375 5.546875 -11.4375 L 4.4375 -11.4375 C 3.90625 -11.4375 3.640625 -11.171875 3.640625 -10.640625 L 3.640625 -8.9375 L 8.484375 -7.375 C 8.828125 -7.257812 9 -7.015625 9 -6.640625 L 9 -2.875 C 9 -1.945312 8.753906 -1.234375 8.265625 -0.734375 C 7.785156 -0.242188 7.070312 0 6.125 0 L 3.875 0 C 2.945312 0 2.234375 -0.242188 1.734375 -0.734375 C 1.242188 -1.234375 1 -1.945312 1 -2.875 L 1 -4.1875 C 1 -4.394531 1.101562 -4.5 1.3125 -4.5 L 3.34375 -4.5 C 3.550781 -4.5 3.65625 -4.394531 3.65625 -4.1875 L 3.65625 -3.34375 C 3.65625 -2.8125 3.921875 -2.546875 4.453125 -2.546875 L 5.546875 -2.546875 C 6.078125 -2.546875 6.34375 -2.8125 6.34375 -3.34375 L 6.34375 -5.359375 L 1.546875 -6.921875 C 1.179688 -7.035156 1 -7.28125 1 -7.65625 L 1 -11.125 C 1 -12.070312 1.242188 -12.785156 1.734375 -13.265625 C 2.234375 -13.753906 2.945312 -14 3.875 -14 Z M 3.875 -14" style="stroke:none"/></g></g><g style="fill:#d5c299;fill-opacity:1;"><g transform="translate(95.259175, 239.237494)"><path d="M 3.71875 -6.359375 L 4.765625 -6.359375 C 4.878906 -6.359375 4.9375 -6.304688 4.9375 -6.203125 L 4.9375 -0.15625 C 4.9375 -0.0507812 4.878906 0 4.765625 0 L 4.03125 0 C 3.925781 0 3.875 -0.0507812 3.875 -0.15625 L 3.875 -3.734375 L 3.8125 -3.734375 L 3.03125 -0.140625 C 3.007812 -0.046875 2.953125 0 2.859375 0 L 2.46875 0 C 2.375 0 2.316406 -0.046875 2.296875 -0.140625 L 1.5 -3.734375 L 1.453125 -3.734375 L 1.453125 -0.15625 C 1.453125 -0.0507812 1.394531 0 1.28125 0 L 0.5625 0 C 0.445312 0 0.390625 -0.0507812 0.390625 -0.15625 L 0.390625 -6.203125 C 0.390625 -6.304688 0.445312 -6.359375 0.5625 -6.359375 L 1.609375 -6.359375 C 1.703125 -6.359375 1.757812 -6.3125 1.78125 -6.21875 L 2.671875 -2.265625 L 3.546875 -6.21875 C 3.578125 -6.3125 3.632812 -6.359375 3.71875 -6.359375 Z M 3.71875 -6.359375" style="stroke:none"/></g></g><g style="fill:#d5c299;fill-opacity:1;"><g transform="translate(102.574333, 239.237494)"><path d="M 0.390625 -1.140625 L 0.390625 -4.421875 C 0.390625 -4.796875 0.488281 -5.078125 0.6875 -5.265625 C 0.882812 -5.460938 1.171875 -5.5625 1.546875 -5.5625 L 2.4375 -5.5625 C 2.8125 -5.5625 3.09375 -5.460938 3.28125 -5.265625 C 3.476562 -5.078125 3.578125 -4.796875 3.578125 -4.421875 L 3.578125 -1.140625 C 3.578125 -0.773438 3.476562 -0.492188 3.28125 -0.296875 C 3.09375 -0.0976562 2.8125 0 2.4375 0 L 1.546875 0 C 1.171875 0 0.882812 -0.0976562 0.6875 -0.296875 C 0.488281 -0.492188 0.390625 -0.773438 0.390625 -1.140625 Z M 1.75 -1.03125 L 2.265625 -1.03125 C 2.472656 -1.03125 2.578125 -1.132812 2.578125 -1.34375 L 2.578125 -4.21875 C 2.578125 -4.4375 2.472656 -4.546875 2.265625 -4.546875 L 1.75 -4.546875 C 1.539062 -4.546875 1.4375 -4.4375 1.4375 -4.21875 L 1.4375 -1.34375 C 1.4375 -1.132812 1.539062 -1.03125 1.75 -1.03125 Z M 1.75 -1.03125" style="stroke:none"/></g></g><g style="fill:#d5c299;fill-opacity:1;"><g transform="translate(108.536306, 239.237494)"><path d="M 3.046875 -5.5625 L 3.765625 -5.5625 C 3.890625 -5.5625 3.9375 -5.503906 3.90625 -5.390625 L 2.640625 -0.140625 C 2.617188 -0.046875 2.5625 0 2.46875 0 L 1.671875 0 C 1.585938 0 1.53125 -0.046875 1.5 -0.140625 L 0.25 -5.390625 C 0.21875 -5.503906 0.265625 -5.5625 0.390625 -5.5625 L 1.109375 -5.5625 C 1.203125 -5.5625 1.257812 -5.515625 1.28125 -5.421875 L 2.078125 -1.828125 L 2.875 -5.421875 C 2.894531 -5.515625 2.953125 -5.5625 3.046875 -5.5625 Z M 3.046875 -5.5625" style="stroke:none"/></g></g><g style="fill:#d5c299;fill-opacity:1;"><g transform="translate(114.681357, 239.237494)"><path d="M 0.53125 0 L 1.359375 0 C 1.441406 0 1.484375 -0.0390625 1.484375 -0.125 L 1.484375 -5.4375 C 1.484375 -5.519531 1.441406 -5.5625 1.359375 -5.5625 L 0.53125 -5.5625 C 0.4375 -5.5625 0.390625 -5.519531 0.390625 -5.4375 L 0.390625 -0.125 C 0.390625 -0.0390625 0.4375 0 0.53125 0 Z M 0.53125 0" style="stroke:none"/></g></g><g style="fill:#d5c299;fill-opacity:1;"><g transform="translate(118.541903, 239.237494)"><path d="M 2.921875 -5.5625 L 3.671875 -5.5625 C 3.753906 -5.5625 3.796875 -5.519531 3.796875 -5.4375 L 3.796875 -0.125 C 3.796875 -0.0390625 3.753906 0 3.671875 0 L 3.03125 0 C 2.96875 0 2.921875 -0.0351562 2.890625 -0.109375 L 1.40625 -3.140625 L 1.40625 -0.125 C 1.40625 -0.0390625 1.359375 0 1.265625 0 L 0.53125 0 C 0.4375 0 0.390625 -0.0390625 0.390625 -0.125 L 0.390625 -5.4375 C 0.390625 -5.519531 0.4375 -5.5625 0.53125 -5.5625 L 1.15625 -5.5625 C 1.21875 -5.5625 1.265625 -5.53125 1.296875 -5.46875 L 2.796875 -2.421875 L 2.796875 -5.4375 C 2.796875 -5.519531 2.835938 -5.5625 2.921875 -5.5625 Z M 2.921875 -5.5625" style="stroke:none"/></g></g><g style="fill:#d5c299;fill-opacity:1;"><g transform="translate(124.718796, 239.237494)"><path d="M 0.390625 -1.140625 L 0.390625 -4.421875 C 0.390625 -4.796875 0.488281 -5.078125 0.6875 -5.265625 C 0.882812 -5.460938 1.171875 -5.5625 1.546875 -5.5625 L 2.4375 -5.5625 C 2.800781 -5.5625 3.082031 -5.460938 3.28125 -5.265625 C 3.476562 -5.078125 3.578125 -4.796875 3.578125 -4.421875 L 3.578125 -3.828125 C 3.578125 -3.742188 3.535156 -3.703125 3.453125 -3.703125 L 2.703125 -3.703125 C 2.617188 -3.703125 2.578125 -3.742188 2.578125 -3.828125 L 2.578125 -4.21875 C 2.578125 -4.4375 2.472656 -4.546875 2.265625 -4.546875 L 1.75 -4.546875 C 1.539062 -4.546875 1.4375 -4.4375 1.4375 -4.21875 L 1.4375 -1.34375 C 1.4375 -1.132812 1.539062 -1.03125 1.75 -1.03125 L 2.265625 -1.03125 C 2.472656 -1.03125 2.578125 -1.132812 2.578125 -1.34375 L 2.578125 -2.03125 L 2.15625 -2.03125 C 2.070312 -2.03125 2.03125 -2.070312 2.03125 -2.15625 L 2.03125 -2.953125 C 2.03125 -3.035156 2.070312 -3.078125 2.15625 -3.078125 L 3.453125 -3.078125 C 3.535156 -3.078125 3.578125 -3.035156 3.578125 -2.953125 L 3.578125 -1.140625 C 3.578125 -0.773438 3.476562 -0.492188 3.28125 -0.296875 C 3.082031 -0.0976562 2.800781 0 2.4375 0 L 1.546875 0 C 1.171875 0 0.882812 -0.0976562 0.6875 -0.296875 C 0.488281 -0.492188 0.390625 -0.773438 0.390625 -1.140625 Z M 0.390625 -1.140625" style="stroke:none"/></g></g><g style="fill:#d5c299;fill-opacity:1;"><g transform="translate(130.680769, 239.237494)"><path d="" style="stroke:none"/></g></g><g style="fill:#d5c299;fill-opacity:1;"><g transform="translate(134.652752, 239.237494)"><path d="M 3.578125 -6.234375 L 3.578125 -5.4375 C 3.578125 -5.351562 3.535156 -5.3125 3.453125 -5.3125 L 1.484375 -5.3125 L 1.484375 -3.71875 L 2.96875 -3.71875 C 3.0625 -3.71875 3.109375 -3.675781 3.109375 -3.59375 L 3.109375 -2.796875 C 3.109375 -2.710938 3.0625 -2.671875 2.96875 -2.671875 L 1.484375 -2.671875 L 1.484375 -0.125 C 1.484375 -0.0390625 1.441406 0 1.359375 0 L 0.53125 0 C 0.4375 0 0.390625 -0.0390625 0.390625 -0.125 L 0.390625 -6.234375 C 0.390625 -6.316406 0.4375 -6.359375 0.53125 -6.359375 L 3.453125 -6.359375 C 3.535156 -6.359375 3.578125 -6.316406 3.578125 -6.234375 Z M 3.578125 -6.234375" style="stroke:none"/></g></g><g style="fill:#d5c299;fill-opacity:1;"><g transform="translate(140.614725, 239.237494)"><path d="M 0.390625 -1.140625 L 0.390625 -4.421875 C 0.390625 -4.796875 0.488281 -5.078125 0.6875 -5.265625 C 0.882812 -5.460938 1.171875 -5.5625 1.546875 -5.5625 L 2.4375 -5.5625 C 2.8125 -5.5625 3.09375 -5.460938 3.28125 -5.265625 C 3.476562 -5.078125 3.578125 -4.796875 3.578125 -4.421875 L 3.578125 -1.140625 C 3.578125 -0.773438 3.476562 -0.492188 3.28125 -0.296875 C 3.09375 -0.0976562 2.8125 0 2.4375 0 L 1.546875 0 C 1.171875 0 0.882812 -0.0976562 0.6875 -0.296875 C 0.488281 -0.492188 0.390625 -0.773438 0.390625 -1.140625 Z M 1.75 -1.03125 L 2.265625 -1.03125 C 2.472656 -1.03125 2.578125 -1.132812 2.578125 -1.34375 L 2.578125 -4.21875 C 2.578125 -4.4375 2.472656 -4.546875 2.265625 -4.546875 L 1.75 -4.546875 C 1.539062 -4.546875 1.4375 -4.4375 1.4375 -4.21875 L 1.4375 -1.34375 C 1.4375 -1.132812 1.539062 -1.03125 1.75 -1.03125 Z M 1.75 -1.03125" style="stroke:none"/></g></g><g style="fill:#d5c299;fill-opacity:1;"><g transform="translate(146.576698, 239.237494)"><path d="M 3.578125 -4.421875 L 3.578125 -2.828125 C 3.578125 -2.359375 3.429688 -2.035156 3.140625 -1.859375 L 3.546875 -0.140625 C 3.578125 -0.046875 3.539062 0 3.4375 0 L 2.65625 0 C 2.582031 0 2.535156 -0.0351562 2.515625 -0.109375 L 2.140625 -1.671875 L 1.4375 -1.671875 L 1.4375 -0.125 C 1.4375 -0.0390625 1.390625 0 1.296875 0 L 0.53125 0 C 0.4375 0 0.390625 -0.0390625 0.390625 -0.125 L 0.390625 -5.4375 C 0.390625 -5.519531 0.4375 -5.5625 0.53125 -5.5625 L 2.4375 -5.5625 C 2.8125 -5.5625 3.09375 -5.460938 3.28125 -5.265625 C 3.476562 -5.078125 3.578125 -4.796875 3.578125 -4.421875 Z M 1.4375 -2.703125 L 2.234375 -2.703125 C 2.441406 -2.703125 2.546875 -2.804688 2.546875 -3.015625 L 2.546875 -4.21875 C 2.546875 -4.4375 2.441406 -4.546875 2.234375 -4.546875 L 1.4375 -4.546875 Z M 1.4375 -2.703125" style="stroke:none"/></g></g><g style="fill:#d5c299;fill-opacity:1;"><g transform="translate(152.538671, 239.237494)"><path d="M 4.90625 -5.5625 L 5.640625 -5.5625 C 5.765625 -5.5625 5.816406 -5.507812 5.796875 -5.40625 L 5.03125 -0.140625 C 5.019531 -0.046875 4.960938 0 4.859375 0 L 4 0 C 3.90625 0 3.847656 -0.046875 3.828125 -0.140625 L 3.09375 -3.40625 L 2.359375 -0.140625 C 2.335938 -0.046875 2.273438 0 2.171875 0 L 1.296875 0 C 1.203125 0 1.144531 -0.0507812 1.125 -0.15625 L 0.390625 -5.40625 C 0.378906 -5.507812 0.429688 -5.5625 0.546875 -5.5625 L 1.296875 -5.5625 C 1.390625 -5.5625 1.445312 -5.515625 1.46875 -5.421875 L 1.859375 -2.09375 L 1.890625 -2.09375 L 2.671875 -5.4375 C 2.703125 -5.519531 2.757812 -5.5625 2.84375 -5.5625 L 3.328125 -5.5625 C 3.421875 -5.5625 3.476562 -5.519531 3.5 -5.4375 L 4.28125 -2.09375 L 4.328125 -2.09375 L 4.734375 -5.421875 C 4.742188 -5.515625 4.800781 -5.5625 4.90625 -5.5625 Z M 4.90625 -5.5625" style="stroke:none"/></g></g><g style="fill:#d5c299;fill-opacity:1;"><g transform="translate(160.625948, 239.237494)"><path d="M 4.15625 0 L 3.375 0 C 3.3125 0 3.269531 -0.0351562 3.25 -0.109375 L 3 -1.109375 L 1.5 -1.109375 L 1.25 -0.109375 C 1.238281 -0.0351562 1.195312 0 1.125 0 L 0.34375 0 C 0.25 0 0.21875 -0.046875 0.25 -0.140625 L 1.5625 -5.453125 C 1.582031 -5.523438 1.628906 -5.5625 1.703125 -5.5625 L 2.8125 -5.5625 C 2.882812 -5.5625 2.925781 -5.523438 2.9375 -5.453125 L 4.265625 -0.140625 C 4.285156 -0.046875 4.25 0 4.15625 0 Z M 2.75 -2.03125 L 2.25 -4.203125 L 1.75 -2.03125 Z M 2.75 -2.03125" style="stroke:none"/></g></g><g style="fill:#d5c299;fill-opacity:1;"><g transform="translate(167.121234, 239.237494)"><path d="M 3.578125 -4.421875 L 3.578125 -2.828125 C 3.578125 -2.359375 3.429688 -2.035156 3.140625 -1.859375 L 3.546875 -0.140625 C 3.578125 -0.046875 3.539062 0 3.4375 0 L 2.65625 0 C 2.582031 0 2.535156 -0.0351562 2.515625 -0.109375 L 2.140625 -1.671875 L 1.4375 -1.671875 L 1.4375 -0.125 C 1.4375 -0.0390625 1.390625 0 1.296875 0 L 0.53125 0 C 0.4375 0 0.390625 -0.0390625 0.390625 -0.125 L 0.390625 -5.4375 C 0.390625 -5.519531 0.4375 -5.5625 0.53125 -5.5625 L 2.4375 -5.5625 C 2.8125 -5.5625 3.09375 -5.460938 3.28125 -5.265625 C 3.476562 -5.078125 3.578125 -4.796875 3.578125 -4.421875 Z M 1.4375 -2.703125 L 2.234375 -2.703125 C 2.441406 -2.703125 2.546875 -2.804688 2.546875 -3.015625 L 2.546875 -4.21875 C 2.546875 -4.4375 2.441406 -4.546875 2.234375 -4.546875 L 1.4375 -4.546875 Z M 1.4375 -2.703125" style="stroke:none"/></g></g><g style="fill:#d5c299;fill-opacity:1;"><g transform="translate(173.083207, 239.237494)"><path d="M 0.390625 -0.125 L 0.390625 -5.4375 C 0.390625 -5.519531 0.4375 -5.5625 0.53125 -5.5625 L 2.4375 -5.5625 C 2.8125 -5.5625 3.09375 -5.460938 3.28125 -5.265625 C 3.476562 -5.078125 3.578125 -4.789062 3.578125 -4.40625 L 3.578125 -1.140625 C 3.578125 -0.773438 3.476562 -0.492188 3.28125 -0.296875 C 3.09375 -0.0976562 2.8125 0 2.4375 0 L 0.53125 0 C 0.4375 0 0.390625 -0.0390625 0.390625 -0.125 Z M 1.484375 -1.046875 L 2.21875 -1.046875 C 2.425781 -1.046875 2.53125 -1.15625 2.53125 -1.375 L 2.53125 -4.1875 C 2.53125 -4.40625 2.425781 -4.515625 2.21875 -4.515625 L 1.484375 -4.515625 Z M 1.484375 -1.046875" style="stroke:none"/></g></g><g style="fill:#d5c299;fill-opacity:1;"><g transform="translate(179.04518, 239.237494)"><path d="M 0.390625 -0.15625 L 0.390625 -0.890625 C 0.390625 -0.992188 0.445312 -1.046875 0.5625 -1.046875 L 1.28125 -1.046875 C 1.382812 -1.046875 1.4375 -0.992188 1.4375 -0.890625 L 1.4375 -0.109375 C 1.4375 -0.0351562 1.421875 0.03125 1.390625 0.09375 L 0.953125 0.734375 C 0.929688 0.773438 0.898438 0.796875 0.859375 0.796875 L 0.5 0.796875 C 0.425781 0.796875 0.40625 0.765625 0.4375 0.703125 L 0.75 0 L 0.5625 0 C 0.445312 0 0.390625 -0.0507812 0.390625 -0.15625 Z M 0.390625 -0.15625" style="stroke:none"/></g></g><g style="fill:#d5c299;fill-opacity:1;"><g transform="translate(182.865927, 239.237494)"><path d="" style="stroke:none"/></g></g><g style="fill:#d5c299;fill-opacity:1;"><g transform="translate(186.837911, 239.237494)"><path d="M 3.59375 -5.21875 L 3.59375 -3.75 C 3.59375 -3.601562 3.539062 -3.476562 3.4375 -3.375 C 3.34375 -3.28125 3.222656 -3.21875 3.078125 -3.1875 L 3.078125 -3.171875 C 3.222656 -3.148438 3.34375 -3.085938 3.4375 -2.984375 C 3.539062 -2.878906 3.59375 -2.753906 3.59375 -2.609375 L 3.59375 -1.140625 C 3.59375 -0.773438 3.492188 -0.492188 3.296875 -0.296875 C 3.097656 -0.0976562 2.8125 0 2.4375 0 L 0.53125 0 C 0.4375 0 0.390625 -0.0390625 0.390625 -0.125 L 0.390625 -6.234375 C 0.390625 -6.316406 0.4375 -6.359375 0.53125 -6.359375 L 2.4375 -6.359375 C 2.8125 -6.359375 3.097656 -6.257812 3.296875 -6.0625 C 3.492188 -5.875 3.59375 -5.59375 3.59375 -5.21875 Z M 2.53125 -4.015625 L 2.53125 -5 C 2.53125 -5.207031 2.425781 -5.3125 2.21875 -5.3125 L 1.484375 -5.3125 L 1.484375 -3.703125 L 2.21875 -3.703125 C 2.425781 -3.703125 2.53125 -3.804688 2.53125 -4.015625 Z M 2.53125 -1.375 L 2.53125 -2.34375 C 2.53125 -2.550781 2.425781 -2.65625 2.21875 -2.65625 L 1.484375 -2.65625 L 1.484375 -1.046875 L 2.21875 -1.046875 C 2.425781 -1.046875 2.53125 -1.15625 2.53125 -1.375 Z M 2.53125 -1.375" style="stroke:none"/></g></g><g style="fill:#d5c299;fill-opacity:1;"><g transform="translate(192.807839, 239.237494)"><path d="M 2.6875 -5.5625 L 3.421875 -5.5625 C 3.460938 -5.5625 3.5 -5.546875 3.53125 -5.515625 C 3.5625 -5.484375 3.578125 -5.445312 3.578125 -5.40625 L 3.578125 -1.140625 C 3.578125 -0.773438 3.476562 -0.492188 3.28125 -0.296875 C 3.09375 -0.0976562 2.8125 0 2.4375 0 L 1.546875 0 C 1.171875 0 0.882812 -0.0976562 0.6875 -0.296875 C 0.488281 -0.492188 0.390625 -0.773438 0.390625 -1.140625 L 0.390625 -5.40625 C 0.390625 -5.445312 0.40625 -5.484375 0.4375 -5.515625 C 0.476562 -5.546875 0.519531 -5.5625 0.5625 -5.5625 L 1.3125 -5.5625 C 1.363281 -5.5625 1.40625 -5.546875 1.4375 -5.515625 C 1.46875 -5.484375 1.484375 -5.445312 1.484375 -5.40625 L 1.484375 -1.375 C 1.484375 -1.15625 1.585938 -1.046875 1.796875 -1.046875 L 2.21875 -1.046875 C 2.425781 -1.046875 2.53125 -1.15625 2.53125 -1.375 L 2.53125 -5.40625 C 2.53125 -5.445312 2.546875 -5.484375 2.578125 -5.515625 C 2.609375 -5.546875 2.644531 -5.5625 2.6875 -5.5625 Z M 2.6875 -5.5625" style="stroke:none"/></g></g><g style="fill:#d5c299;fill-opacity:1;"><g transform="translate(198.769812, 239.237494)"><path d="M 0.53125 0 L 1.359375 0 C 1.441406 0 1.484375 -0.0390625 1.484375 -0.125 L 1.484375 -5.4375 C 1.484375 -5.519531 1.441406 -5.5625 1.359375 -5.5625 L 0.53125 -5.5625 C 0.4375 -5.5625 0.390625 -5.519531 0.390625 -5.4375 L 0.390625 -0.125 C 0.390625 -0.0390625 0.4375 0 0.53125 0 Z M 0.53125 0" style="stroke:none"/></g></g><g style="fill:#d5c299;fill-opacity:1;"><g transform="translate(202.630358, 239.237494)"><path d="M 1.484375 -1.046875 L 1.484375 -5.4375 C 1.484375 -5.519531 1.441406 -5.5625 1.359375 -5.5625 L 0.53125 -5.5625 C 0.4375 -5.5625 0.390625 -5.519531 0.390625 -5.4375 L 0.390625 -0.125 C 0.390625 -0.0390625 0.4375 0 0.53125 0 L 3.046875 0 C 3.140625 0 3.1875 -0.0390625 3.1875 -0.125 L 3.1875 -0.921875 C 3.1875 -1.003906 3.140625 -1.046875 3.046875 -1.046875 Z M 1.484375 -1.046875" style="stroke:none"/></g></g><g style="fill:#d5c299;fill-opacity:1;"><g transform="translate(208.194333, 239.237494)"><path d="M 0.390625 -0.125 L 0.390625 -5.4375 C 0.390625 -5.519531 0.4375 -5.5625 0.53125 -5.5625 L 2.4375 -5.5625 C 2.8125 -5.5625 3.09375 -5.460938 3.28125 -5.265625 C 3.476562 -5.078125 3.578125 -4.789062 3.578125 -4.40625 L 3.578125 -1.140625 C 3.578125 -0.773438 3.476562 -0.492188 3.28125 -0.296875 C 3.09375 -0.0976562 2.8125 0 2.4375 0 L 0.53125 0 C 0.4375 0 0.390625 -0.0390625 0.390625 -0.125 Z M 1.484375 -1.046875 L 2.21875 -1.046875 C 2.425781 -1.046875 2.53125 -1.15625 2.53125 -1.375 L 2.53125 -4.1875 C 2.53125 -4.40625 2.425781 -4.515625 2.21875 -4.515625 L 1.484375 -4.515625 Z M 1.484375 -1.046875" style="stroke:none"/></g></g><g style="fill:#d5c299;fill-opacity:1;"><g transform="translate(214.156306, 239.237494)"><path d="M 0.53125 0 L 1.359375 0 C 1.441406 0 1.484375 -0.0390625 1.484375 -0.125 L 1.484375 -5.4375 C 1.484375 -5.519531 1.441406 -5.5625 1.359375 -5.5625 L 0.53125 -5.5625 C 0.4375 -5.5625 0.390625 -5.519531 0.390625 -5.4375 L 0.390625 -0.125 C 0.390625 -0.0390625 0.4375 0 0.53125 0 Z M 0.53125 0" style="stroke:none"/></g></g><g style="fill:#d5c299;fill-opacity:1;"><g transform="translate(218.016851, 239.237494)"><path d="M 2.921875 -5.5625 L 3.671875 -5.5625 C 3.753906 -5.5625 3.796875 -5.519531 3.796875 -5.4375 L 3.796875 -0.125 C 3.796875 -0.0390625 3.753906 0 3.671875 0 L 3.03125 0 C 2.96875 0 2.921875 -0.0351562 2.890625 -0.109375 L 1.40625 -3.140625 L 1.40625 -0.125 C 1.40625 -0.0390625 1.359375 0 1.265625 0 L 0.53125 0 C 0.4375 0 0.390625 -0.0390625 0.390625 -0.125 L 0.390625 -5.4375 C 0.390625 -5.519531 0.4375 -5.5625 0.53125 -5.5625 L 1.15625 -5.5625 C 1.21875 -5.5625 1.265625 -5.53125 1.296875 -5.46875 L 2.796875 -2.421875 L 2.796875 -5.4375 C 2.796875 -5.519531 2.835938 -5.5625 2.921875 -5.5625 Z M 2.921875 -5.5625" style="stroke:none"/></g></g><g style="fill:#d5c299;fill-opacity:1;"><g transform="translate(224.193744, 239.237494)"><path d="M 0.390625 -1.140625 L 0.390625 -4.421875 C 0.390625 -4.796875 0.488281 -5.078125 0.6875 -5.265625 C 0.882812 -5.460938 1.171875 -5.5625 1.546875 -5.5625 L 2.4375 -5.5625 C 2.800781 -5.5625 3.082031 -5.460938 3.28125 -5.265625 C 3.476562 -5.078125 3.578125 -4.796875 3.578125 -4.421875 L 3.578125 -3.828125 C 3.578125 -3.742188 3.535156 -3.703125 3.453125 -3.703125 L 2.703125 -3.703125 C 2.617188 -3.703125 2.578125 -3.742188 2.578125 -3.828125 L 2.578125 -4.21875 C 2.578125 -4.4375 2.472656 -4.546875 2.265625 -4.546875 L 1.75 -4.546875 C 1.539062 -4.546875 1.4375 -4.4375 1.4375 -4.21875 L 1.4375 -1.34375 C 1.4375 -1.132812 1.539062 -1.03125 1.75 -1.03125 L 2.265625 -1.03125 C 2.472656 -1.03125 2.578125 -1.132812 2.578125 -1.34375 L 2.578125 -2.03125 L 2.15625 -2.03125 C 2.070312 -2.03125 2.03125 -2.070312 2.03125 -2.15625 L 2.03125 -2.953125 C 2.03125 -3.035156 2.070312 -3.078125 2.15625 -3.078125 L 3.453125 -3.078125 C 3.535156 -3.078125 3.578125 -3.035156 3.578125 -2.953125 L 3.578125 -1.140625 C 3.578125 -0.773438 3.476562 -0.492188 3.28125 -0.296875 C 3.082031 -0.0976562 2.800781 0 2.4375 0 L 1.546875 0 C 1.171875 0 0.882812 -0.0976562 0.6875 -0.296875 C 0.488281 -0.492188 0.390625 -0.773438 0.390625 -1.140625 Z M 0.390625 -1.140625" style="stroke:none"/></g></g><g style="fill:#d5c299;fill-opacity:1;"><g transform="translate(230.155717, 239.237494)"><path d="" style="stroke:none"/></g></g><g style="fill:#d5c299;fill-opacity:1;"><g transform="translate(234.127701, 239.237494)"><path d="M 1.546875 -5.5625 L 2.4375 -5.5625 C 2.8125 -5.5625 3.09375 -5.460938 3.28125 -5.265625 C 3.476562 -5.078125 3.578125 -4.796875 3.578125 -4.421875 L 3.578125 -3.890625 C 3.578125 -3.804688 3.535156 -3.765625 3.453125 -3.765625 L 2.640625 -3.765625 C 2.554688 -3.765625 2.515625 -3.804688 2.515625 -3.890625 L 2.515625 -4.234375 C 2.515625 -4.441406 2.410156 -4.546875 2.203125 -4.546875 L 1.765625 -4.546875 C 1.554688 -4.546875 1.453125 -4.441406 1.453125 -4.234375 L 1.453125 -3.5625 L 3.375 -2.9375 C 3.507812 -2.882812 3.578125 -2.785156 3.578125 -2.640625 L 3.578125 -1.140625 C 3.578125 -0.773438 3.476562 -0.492188 3.28125 -0.296875 C 3.09375 -0.0976562 2.8125 0 2.4375 0 L 1.546875 0 C 1.171875 0 0.882812 -0.0976562 0.6875 -0.296875 C 0.488281 -0.492188 0.390625 -0.773438 0.390625 -1.140625 L 0.390625 -1.65625 C 0.390625 -1.75 0.4375 -1.796875 0.53125 -1.796875 L 1.328125 -1.796875 C 1.410156 -1.796875 1.453125 -1.75 1.453125 -1.65625 L 1.453125 -1.328125 C 1.453125 -1.117188 1.5625 -1.015625 1.78125 -1.015625 L 2.203125 -1.015625 C 2.410156 -1.015625 2.515625 -1.117188 2.515625 -1.328125 L 2.515625 -2.125 L 0.609375 -2.75 C 0.460938 -2.800781 0.390625 -2.898438 0.390625 -3.046875 L 0.390625 -4.421875 C 0.390625 -4.796875 0.488281 -5.078125 0.6875 -5.265625 C 0.882812 -5.460938 1.171875 -5.5625 1.546875 -5.5625 Z M 1.546875 -5.5625" style="stroke:none"/></g></g><g style="fill:#d5c299;fill-opacity:1;"><g transform="translate(240.089674, 239.237494)"><path d="M 3.296875 -5.5625 L 0.359375 -5.5625 C 0.273438 -5.5625 0.234375 -5.519531 0.234375 -5.4375 L 0.234375 -4.640625 C 0.234375 -4.554688 0.273438 -4.515625 0.359375 -4.515625 L 1.28125 -4.515625 L 1.28125 -0.125 C 1.28125 -0.0390625 1.328125 0 1.421875 0 L 2.25 0 C 2.332031 0 2.375 -0.0390625 2.375 -0.125 L 2.375 -4.515625 L 3.296875 -4.515625 C 3.378906 -4.515625 3.421875 -4.554688 3.421875 -4.640625 L 3.421875 -5.4375 C 3.421875 -5.519531 3.378906 -5.5625 3.296875 -5.5625 Z M 3.296875 -5.5625" style="stroke:none"/></g></g><g style="fill:#d5c299;fill-opacity:1;"><g transform="translate(245.733244, 239.237494)"><path d="M 3.578125 -4.421875 L 3.578125 -2.828125 C 3.578125 -2.359375 3.429688 -2.035156 3.140625 -1.859375 L 3.546875 -0.140625 C 3.578125 -0.046875 3.539062 0 3.4375 0 L 2.65625 0 C 2.582031 0 2.535156 -0.0351562 2.515625 -0.109375 L 2.140625 -1.671875 L 1.4375 -1.671875 L 1.4375 -0.125 C 1.4375 -0.0390625 1.390625 0 1.296875 0 L 0.53125 0 C 0.4375 0 0.390625 -0.0390625 0.390625 -0.125 L 0.390625 -5.4375 C 0.390625 -5.519531 0.4375 -5.5625 0.53125 -5.5625 L 2.4375 -5.5625 C 2.8125 -5.5625 3.09375 -5.460938 3.28125 -5.265625 C 3.476562 -5.078125 3.578125 -4.796875 3.578125 -4.421875 Z M 1.4375 -2.703125 L 2.234375 -2.703125 C 2.441406 -2.703125 2.546875 -2.804688 2.546875 -3.015625 L 2.546875 -4.21875 C 2.546875 -4.4375 2.441406 -4.546875 2.234375 -4.546875 L 1.4375 -4.546875 Z M 1.4375 -2.703125" style="stroke:none"/></g></g><g style="fill:#d5c299;fill-opacity:1;"><g transform="translate(251.695217, 239.237494)"><path d="M 0.390625 -1.140625 L 0.390625 -4.421875 C 0.390625 -4.796875 0.488281 -5.078125 0.6875 -5.265625 C 0.882812 -5.460938 1.171875 -5.5625 1.546875 -5.5625 L 2.4375 -5.5625 C 2.8125 -5.5625 3.09375 -5.460938 3.28125 -5.265625 C 3.476562 -5.078125 3.578125 -4.796875 3.578125 -4.421875 L 3.578125 -1.140625 C 3.578125 -0.773438 3.476562 -0.492188 3.28125 -0.296875 C 3.09375 -0.0976562 2.8125 0 2.4375 0 L 1.546875 0 C 1.171875 0 0.882812 -0.0976562 0.6875 -0.296875 C 0.488281 -0.492188 0.390625 -0.773438 0.390625 -1.140625 Z M 1.75 -1.03125 L 2.265625 -1.03125 C 2.472656 -1.03125 2.578125 -1.132812 2.578125 -1.34375 L 2.578125 -4.21875 C 2.578125 -4.4375 2.472656 -4.546875 2.265625 -4.546875 L 1.75 -4.546875 C 1.539062 -4.546875 1.4375 -4.4375 1.4375 -4.21875 L 1.4375 -1.34375 C 1.4375 -1.132812 1.539062 -1.03125 1.75 -1.03125 Z M 1.75 -1.03125" style="stroke:none"/></g></g><g style="fill:#d5c299;fill-opacity:1;"><g transform="translate(257.65719, 239.237494)"><path d="M 2.921875 -5.5625 L 3.671875 -5.5625 C 3.753906 -5.5625 3.796875 -5.519531 3.796875 -5.4375 L 3.796875 -0.125 C 3.796875 -0.0390625 3.753906 0 3.671875 0 L 3.03125 0 C 2.96875 0 2.921875 -0.0351562 2.890625 -0.109375 L 1.40625 -3.140625 L 1.40625 -0.125 C 1.40625 -0.0390625 1.359375 0 1.265625 0 L 0.53125 0 C 0.4375 0 0.390625 -0.0390625 0.390625 -0.125 L 0.390625 -5.4375 C 0.390625 -5.519531 0.4375 -5.5625 0.53125 -5.5625 L 1.15625 -5.5625 C 1.21875 -5.5625 1.265625 -5.53125 1.296875 -5.46875 L 2.796875 -2.421875 L 2.796875 -5.4375 C 2.796875 -5.519531 2.835938 -5.5625 2.921875 -5.5625 Z M 2.921875 -5.5625" style="stroke:none"/></g></g><g style="fill:#d5c299;fill-opacity:1;"><g transform="translate(263.834083, 239.237494)"><path d="M 0.390625 -1.140625 L 0.390625 -4.421875 C 0.390625 -4.796875 0.488281 -5.078125 0.6875 -5.265625 C 0.882812 -5.460938 1.171875 -5.5625 1.546875 -5.5625 L 2.4375 -5.5625 C 2.800781 -5.5625 3.082031 -5.460938 3.28125 -5.265625 C 3.476562 -5.078125 3.578125 -4.796875 3.578125 -4.421875 L 3.578125 -3.828125 C 3.578125 -3.742188 3.535156 -3.703125 3.453125 -3.703125 L 2.703125 -3.703125 C 2.617188 -3.703125 2.578125 -3.742188 2.578125 -3.828125 L 2.578125 -4.21875 C 2.578125 -4.4375 2.472656 -4.546875 2.265625 -4.546875 L 1.75 -4.546875 C 1.539062 -4.546875 1.4375 -4.4375 1.4375 -4.21875 L 1.4375 -1.34375 C 1.4375 -1.132812 1.539062 -1.03125 1.75 -1.03125 L 2.265625 -1.03125 C 2.472656 -1.03125 2.578125 -1.132812 2.578125 -1.34375 L 2.578125 -2.03125 L 2.15625 -2.03125 C 2.070312 -2.03125 2.03125 -2.070312 2.03125 -2.15625 L 2.03125 -2.953125 C 2.03125 -3.035156 2.070312 -3.078125 2.15625 -3.078125 L 3.453125 -3.078125 C 3.535156 -3.078125 3.578125 -3.035156 3.578125 -2.953125 L 3.578125 -1.140625 C 3.578125 -0.773438 3.476562 -0.492188 3.28125 -0.296875 C 3.082031 -0.0976562 2.800781 0 2.4375 0 L 1.546875 0 C 1.171875 0 0.882812 -0.0976562 0.6875 -0.296875 C 0.488281 -0.492188 0.390625 -0.773438 0.390625 -1.140625 Z M 0.390625 -1.140625" style="stroke:none"/></g></g><g style="fill:#d5c299;fill-opacity:1;"><g transform="translate(269.796056, 239.237494)"><path d="M 3.578125 -5.4375 L 3.578125 -4.640625 C 3.578125 -4.554688 3.53125 -4.515625 3.4375 -4.515625 L 1.484375 -4.515625 L 1.484375 -3.28125 L 2.96875 -3.28125 C 3.0625 -3.28125 3.109375 -3.238281 3.109375 -3.15625 L 3.109375 -2.359375 C 3.109375 -2.273438 3.0625 -2.234375 2.96875 -2.234375 L 1.484375 -2.234375 L 1.484375 -1.046875 L 3.4375 -1.046875 C 3.53125 -1.046875 3.578125 -1.003906 3.578125 -0.921875 L 3.578125 -0.125 C 3.578125 -0.0390625 3.53125 0 3.4375 0 L 0.515625 0 C 0.429688 0 0.390625 -0.0390625 0.390625 -0.125 L 0.390625 -5.4375 C 0.390625 -5.519531 0.429688 -5.5625 0.515625 -5.5625 L 3.4375 -5.5625 C 3.53125 -5.5625 3.578125 -5.519531 3.578125 -5.4375 Z M 3.578125 -5.4375" style="stroke:none"/></g></g><g style="fill:#d5c299;fill-opacity:1;"><g transform="translate(275.750074, 239.237494)"><path d="M 3.578125 -4.421875 L 3.578125 -2.828125 C 3.578125 -2.359375 3.429688 -2.035156 3.140625 -1.859375 L 3.546875 -0.140625 C 3.578125 -0.046875 3.539062 0 3.4375 0 L 2.65625 0 C 2.582031 0 2.535156 -0.0351562 2.515625 -0.109375 L 2.140625 -1.671875 L 1.4375 -1.671875 L 1.4375 -0.125 C 1.4375 -0.0390625 1.390625 0 1.296875 0 L 0.53125 0 C 0.4375 0 0.390625 -0.0390625 0.390625 -0.125 L 0.390625 -5.4375 C 0.390625 -5.519531 0.4375 -5.5625 0.53125 -5.5625 L 2.4375 -5.5625 C 2.8125 -5.5625 3.09375 -5.460938 3.28125 -5.265625 C 3.476562 -5.078125 3.578125 -4.796875 3.578125 -4.421875 Z M 1.4375 -2.703125 L 2.234375 -2.703125 C 2.441406 -2.703125 2.546875 -2.804688 2.546875 -3.015625 L 2.546875 -4.21875 C 2.546875 -4.4375 2.441406 -4.546875 2.234375 -4.546875 L 1.4375 -4.546875 Z M 1.4375 -2.703125" style="stroke:none"/></g></g></g></svg>